<?xml version="1.0" encoding="UTF-8" standalone="no"?>
<svg
   width="500"
   zoomAndPan="magnify"
   viewBox="0 0 375 273.74999"
   height="365"
   preserveAspectRatio="xMidYMid meet"
   version="1.0"
   id="svg111"
   sodipodi:docname="Green save Nature  care organization  logo designs.svg"
   inkscape:version="1.1.2 (0a00cf5339, 2022-02-04)"
   xmlns:inkscape="http://www.inkscape.org/namespaces/inkscape"
   xmlns:sodipodi="http://sodipodi.sourceforge.net/DTD/sodipodi-0.dtd"
   xmlns="http://www.w3.org/2000/svg"
   xmlns:svg="http://www.w3.org/2000/svg">
  <sodipodi:namedview
     id="namedview113"
     pagecolor="#ffffff"
     bordercolor="#cccccc"
     borderopacity="1"
     inkscape:pageshadow="0"
     inkscape:pageopacity="1"
     inkscape:pagecheckerboard="true"
     showgrid="false"
     inkscape:zoom="1.0372177"
     inkscape:cx="213.07002"
     inkscape:cy="252.11679"
     inkscape:window-width="1920"
     inkscape:window-height="1005"
     inkscape:window-x="0"
     inkscape:window-y="0"
     inkscape:window-maximized="1"
     inkscape:current-layer="svg111" />
  <defs
     id="defs7">
    <g
       id="g2" />
    <clipPath
       id="7664218201">
      <path
         d="m 178,55.941406 h 24 V 110 h -24 z m 0,0"
         clip-rule="nonzero"
         id="path4" />
    </clipPath>
  </defs>
  <path
     fill="#ffffff"
     d="m 213.49938,158.53943 10.75653,-5.29194 c 26.30379,-13.43258 25.0968,3.52969 19.13631,6.47197 -5.99771,2.90589 -14.68588,7.54283 -40.08044,20.46078 -22.76259,11.56636 -41.85636,-2.94228 -54.98433,-6.44078 -13.1705,-3.52969 -23.29962,-2.73954 -23.29962,-2.73954 l -6.78464,-27.45778 c 0,0 5.55107,-3.72723 17.53054,-9.58059 11.94757,-5.81178 21.64068,-6.76308 31.75384,-2.71355 6.54005,2.61478 12.38357,7.71958 30.93499,5.56225 14.8773,-1.77264 20.62511,14.9661 -6.8644,17.31577 -8.09265,0.69138 -13.6065,0.20273 -13.6065,0.20273 0,0 11.94756,11.92506 35.50772,4.21068 z m 0,0"
     fill-opacity="1"
     fill-rule="nonzero"
     id="path15"
     style="stroke-width:1.3459" />
  <path
     fill="#ffffff"
     d="m 256.12672,72.444068 c -62.82708,1.34118 -73.19014,44.945082 -74.81186,56.095582 7.7364,-3.8208 25.89437,-13.80167 40.57493,-29.121256 0,0 -15.23886,19.119596 -35.9065,32.162306 64.25738,4.27305 70.14343,-59.136632 70.14343,-59.136632 z m 0,0"
     fill-opacity="1"
     fill-rule="nonzero"
     id="path17"
     style="stroke-width:1.3459" />
  <g
     clip-path="url(#7664218201)"
     id="g21"
     transform="matrix(1.3611825,0,0,1.3307821,-68.08461,-57.208421)">
    <path
       fill="#ffffff"
       d="m 192.05078,55.941406 c 20.16406,29.179688 3.21484,48.660154 -1.46094,53.175784 -0.77343,-4.83594 -2.09765,-16.480471 0.19532,-28.39844 0,0 -3.89063,13.414062 -3.14454,27.28906 -23.28906,-27.949216 4.41016,-52.066404 4.41016,-52.066404 z m 0,0"
       fill-opacity="1"
       fill-rule="nonzero"
       id="path19" />
  </g>
  <path
     fill="#ffffff"
     d="m 141.42051,49.202167 c 47.29578,23.66297 38.74053,60.633753 35.7789,69.684113 -4.44512,-5.7182 -14.49447,-19.842166 -19.8754,-36.799239 0,0 4.36536,20.003319 15.17506,37.423049 -50.5339,-19.935736 -31.07856,-70.307923 -31.07856,-70.307923 z m 0,0"
     fill-opacity="1"
     fill-rule="nonzero"
     id="path23"
     style="stroke-width:1.3459" />
  <g
     fill="#ffffff"
     fill-opacity="1"
     id="g31"
     transform="matrix(1.3611825,0,0,1.3307821,-68.08461,-57.208421)">
    <g
       transform="translate(59.295914,235.5004)"
       id="g29">
      <g
         id="g27">
        <path
           d="M 25.71875,-24.453125 H 10.828125 V -17.375 H 24.53125 v 6.109375 H 10.828125 V 0 H 3.0625 v -30.5625 h 22.65625 z m 0,0"
           id="path25" />
      </g>
    </g>
  </g>
  <g
     fill="#ffffff"
     fill-opacity="1"
     id="g39"
     transform="matrix(1.3611825,0,0,1.3307821,-68.08461,-57.208421)">
    <g
       transform="translate(85.660702,235.5004)"
       id="g37">
      <g
         id="g35">
        <path
           d="m 13.3125,-23.796875 c 4.070312,0 7.132812,1.257813 9.1875,3.765625 2.050781,2.5 2.945312,5.933594 2.6875,10.296875 H 8.640625 c 0.382813,1.398437 1.054687,2.476563 2.015625,3.234375 0.957031,0.75 2.132812,1.125 3.53125,1.125 2.15625,0 4.03125,-0.796875 5.625,-2.390625 l 3.984375,3.875 c -2.53125,2.773437 -5.953125,4.15625 -10.265625,4.15625 -3.8125,0 -6.851562,-1.085937 -9.109375,-3.265625 -2.25,-2.1875 -3.375,-5.085938 -3.375,-8.703125 0,-3.632813 1.125,-6.554687 3.375,-8.765625 2.257813,-2.21875 5.222656,-3.328125 8.890625,-3.328125 z m -4.796875,10 H 17.9375 c 0,-1.425781 -0.417969,-2.570313 -1.25,-3.4375 -0.824219,-0.875 -1.917969,-1.3125 -3.28125,-1.3125 -1.28125,0 -2.359375,0.429687 -3.234375,1.28125 -0.875,0.855469 -1.429687,2.011719 -1.65625,3.46875 z m 0,0"
           id="path33" />
      </g>
    </g>
  </g>
  <g
     fill="#ffffff"
     fill-opacity="1"
     id="g47"
     transform="matrix(1.3611825,0,0,1.3307821,-68.08461,-57.208421)">
    <g
       transform="translate(111.93819,235.5004)"
       id="g45">
      <g
         id="g43">
        <path
           d="m 13.3125,-23.796875 c 4.070312,0 7.132812,1.257813 9.1875,3.765625 2.050781,2.5 2.945312,5.933594 2.6875,10.296875 H 8.640625 c 0.382813,1.398437 1.054687,2.476563 2.015625,3.234375 0.957031,0.75 2.132812,1.125 3.53125,1.125 2.15625,0 4.03125,-0.796875 5.625,-2.390625 l 3.984375,3.875 c -2.53125,2.773437 -5.953125,4.15625 -10.265625,4.15625 -3.8125,0 -6.851562,-1.085937 -9.109375,-3.265625 -2.25,-2.1875 -3.375,-5.085938 -3.375,-8.703125 0,-3.632813 1.125,-6.554687 3.375,-8.765625 2.257813,-2.21875 5.222656,-3.328125 8.890625,-3.328125 z m -4.796875,10 H 17.9375 c 0,-1.425781 -0.417969,-2.570313 -1.25,-3.4375 -0.824219,-0.875 -1.917969,-1.3125 -3.28125,-1.3125 -1.28125,0 -2.359375,0.429687 -3.234375,1.28125 -0.875,0.855469 -1.429687,2.011719 -1.65625,3.46875 z m 0,0"
           id="path41" />
      </g>
    </g>
  </g>
  <g
     fill="#ffffff"
     fill-opacity="1"
     id="g55"
     transform="matrix(1.3611825,0,0,1.3307821,-68.08461,-57.208421)">
    <g
       transform="translate(138.21567,235.5004)"
       id="g53">
      <g
         id="g51">
        <path
           d="M 10.78125,0 H 3.234375 v -32.390625 h 7.546875 z m 0,0"
           id="path49" />
      </g>
    </g>
  </g>
  <g
     fill="#ffffff"
     fill-opacity="1"
     id="g61">
    <g
       transform="translate(152.22742,235.5004)"
       id="g59">
      <g
         id="g57" />
    </g>
  </g>
  <g
     fill="#ffffff"
     fill-opacity="1"
     id="g69"
     transform="matrix(1.3611825,0,0,1.3307821,-68.08461,-57.208421)">
    <g
       transform="translate(162.3543,235.5004)"
       id="g67">
      <g
         id="g65">
        <path
           d="M 31.265625,0 H 24.40625 L 10.34375,-18.8125 V 0 H 3.0625 v -30.5625 h 6.84375 l 14.109375,18.859375 V -30.5625 h 7.25 z m 0,0"
           id="path63" />
      </g>
    </g>
  </g>
  <g
     fill="#ffffff"
     fill-opacity="1"
     id="g77"
     transform="matrix(1.3611825,0,0,1.3307821,-68.08461,-57.208421)">
    <g
       transform="translate(196.66344,235.5004)"
       id="g75">
      <g
         id="g73">
        <path
           d="m 13.578125,-23.875 c 3.226563,0 5.738281,0.75 7.53125,2.25 1.789063,1.492188 2.703125,3.578125 2.734375,6.265625 V 0 H 16.453125 V -2.703125 C 14.910156,-0.671875 12.507812,0.34375 9.25,0.34375 c -2.46875,0 -4.433594,-0.679688 -5.890625,-2.046875 -1.460937,-1.363281 -2.1875,-3.140625 -2.1875,-5.328125 0,-2.238281 0.773437,-3.972656 2.328125,-5.203125 1.5625,-1.238281 3.800781,-1.875 6.71875,-1.90625 h 6.203125 V -14.5 c 0,-1.15625 -0.390625,-2.0625 -1.171875,-2.71875 -0.773438,-0.65625 -1.914062,-0.984375 -3.421875,-0.984375 -2.125,0 -4.46875,0.65625 -7.03125,1.96875 L 2.65625,-21.21875 c 3.8125,-1.769531 7.453125,-2.65625 10.921875,-2.65625 z M 11.5625,-4.765625 c 1.195312,0 2.242188,-0.296875 3.140625,-0.890625 0.90625,-0.59375 1.476563,-1.367188 1.71875,-2.328125 v -2.09375 H 11.65625 c -2.273438,0 -3.40625,0.84375 -3.40625,2.53125 C 8.25,-6.679688 8.539062,-6 9.125,-5.5 c 0.582031,0.492188 1.394531,0.734375 2.4375,0.734375 z m 0,0"
           id="path71" />
      </g>
    </g>
  </g>
  <g
     fill="#ffffff"
     fill-opacity="1"
     id="g85"
     transform="matrix(1.3611825,0,0,1.3307821,-68.08461,-57.208421)">
    <g
       transform="translate(222.85363,235.5004)"
       id="g83">
      <g
         id="g81">
        <path
           d="m 16.71875,-6.5 1.484375,5.234375 c -1.835937,1.074219 -3.929687,1.609375 -6.28125,1.609375 -2.335937,0 -4.21875,-0.644531 -5.65625,-1.9375 -1.4375,-1.289062 -2.15625,-3.128906 -2.15625,-5.515625 V -17.5 h -3.28125 v -4.9375 h 3.28125 v -6.546875 h 7.5 v 6.5 h 6.15625 V -17.5 h -6.15625 v 9.203125 c 0,0.90625 0.179687,1.574219 0.546875,2 0.363281,0.417969 0.910156,0.609375 1.640625,0.578125 0.695313,0 1.671875,-0.257812 2.921875,-0.78125 z m 0,0"
           id="path79" />
      </g>
    </g>
  </g>
  <g
     fill="#ffffff"
     fill-opacity="1"
     id="g93"
     transform="matrix(1.3611825,0,0,1.3307821,-68.08461,-57.208421)">
    <g
       transform="translate(241.84151,235.5004)"
       id="g91">
      <g
         id="g89">
        <path
           d="M 25.9375,-23.53125 V 0 H 18.375 V -3.890625 C 16.78125,-1.085938 14.234375,0.3125 10.734375,0.3125 8.171875,0.3125 6.125,-0.5 4.59375,-2.125 3.070312,-3.757812 2.3125,-5.945312 2.3125,-8.6875 v -14.84375 h 7.546875 v 12.703125 c 0,1.398437 0.351563,2.496094 1.0625,3.296875 0.71875,0.804688 1.675781,1.203125 2.875,1.203125 1.425781,-0.03125 2.546875,-0.5625 3.359375,-1.59375 0.8125,-1.03125 1.21875,-2.363281 1.21875,-4 V -23.53125 Z m 0,0"
           id="path87" />
      </g>
    </g>
  </g>
  <g
     fill="#ffffff"
     fill-opacity="1"
     id="g101"
     transform="matrix(1.3611825,0,0,1.3307821,-68.08461,-57.208421)">
    <g
       transform="translate(270.78166,235.5004)"
       id="g99">
      <g
         id="g97">
        <path
           d="m 10.5625,-23.53125 v 3.96875 c 1.65625,-2.820312 4.203125,-4.257812 7.640625,-4.3125 v 6.8125 c -2.15625,-0.207031 -3.917969,0.148438 -5.28125,1.0625 -1.367187,0.917969 -2.152344,2.21875 -2.359375,3.90625 V 0 H 3.015625 v -23.53125 z m 0,0"
           id="path95" />
      </g>
    </g>
  </g>
  <g
     fill="#ffffff"
     fill-opacity="1"
     id="g109"
     transform="matrix(1.3611825,0,0,1.3307821,-68.08461,-57.208421)">
    <g
       transform="translate(289.42033,235.5004)"
       id="g107">
      <g
         id="g105">
        <path
           d="m 13.3125,-23.796875 c 4.070312,0 7.132812,1.257813 9.1875,3.765625 2.050781,2.5 2.945312,5.933594 2.6875,10.296875 H 8.640625 c 0.382813,1.398437 1.054687,2.476563 2.015625,3.234375 0.957031,0.75 2.132812,1.125 3.53125,1.125 2.15625,0 4.03125,-0.796875 5.625,-2.390625 l 3.984375,3.875 c -2.53125,2.773437 -5.953125,4.15625 -10.265625,4.15625 -3.8125,0 -6.851562,-1.085937 -9.109375,-3.265625 -2.25,-2.1875 -3.375,-5.085938 -3.375,-8.703125 0,-3.632813 1.125,-6.554687 3.375,-8.765625 2.257813,-2.21875 5.222656,-3.328125 8.890625,-3.328125 z m -4.796875,10 H 17.9375 c 0,-1.425781 -0.417969,-2.570313 -1.25,-3.4375 -0.824219,-0.875 -1.917969,-1.3125 -3.28125,-1.3125 -1.28125,0 -2.359375,0.429687 -3.234375,1.28125 -0.875,0.855469 -1.429687,2.011719 -1.65625,3.46875 z m 0,0"
           id="path103" />
      </g>
    </g>
  </g>
</svg>
